<svg width="187" height="57" viewBox="0 0 187 57" fill="none" xmlns="http://www.w3.org/2000/svg">
<path d="M24.496 56.368C20.784 56.368 17.4347 55.792 14.448 54.64C11.504 53.5307 8.98667 51.9307 6.896 49.84C4.848 47.792 3.26933 45.3173 2.16 42.416C1.09333 39.5147 0.56 36.3147 0.56 32.816C0.56 27.824 1.43467 23.344 3.184 19.376C4.976 15.3653 7.42933 11.9733 10.544 9.2C13.7013 6.384 17.3493 4.25067 21.488 2.8C25.6693 1.30666 30.128 0.559998 34.864 0.559998C38.2773 0.559998 41.3493 1.05066 44.08 2.032C46.8107 2.97066 49.1573 4.336 51.12 6.128C53.0827 7.92 54.576 10.0533 55.6 12.528C56.6667 14.96 57.2 17.6693 57.2 20.656C57.2 23.5573 56.7733 26.3307 55.92 28.976C55.1093 31.5787 53.9573 33.904 52.464 35.952C50.9707 37.9573 49.2213 39.5573 47.216 40.752C45.2533 41.904 43.12 42.48 40.816 42.48C39.3227 42.48 38 42.224 36.848 41.712C35.7387 41.1573 34.864 40.4107 34.224 39.472C33.584 38.5333 33.264 37.4027 33.264 36.08C33.264 35.44 33.328 34.7573 33.456 34.032C33.6267 33.3067 33.7547 32.56 33.84 31.792L34.736 33.072C34.096 35.0773 33.2213 36.784 32.112 38.192C31.0453 39.6 29.7867 40.6667 28.336 41.392C26.8853 42.1173 25.3067 42.48 23.6 42.48C21.7653 42.48 20.1227 41.9893 18.672 41.008C17.264 40.0267 16.1547 38.6613 15.344 36.912C14.5333 35.1627 14.128 33.136 14.128 30.832C14.128 28.8267 14.4907 26.8 15.216 24.752C15.9413 22.704 16.9867 20.8267 18.352 19.12C19.7173 17.4133 21.3387 16.0267 23.216 14.96C25.0933 13.8933 27.1627 13.36 29.424 13.36C30.7467 13.36 31.92 13.68 32.944 14.32C34.0107 14.96 34.864 15.856 35.504 17.008C36.1867 18.16 36.592 19.504 36.72 21.04L35.184 24.816L36.848 13.936H43.312L40.048 33.648C39.92 34.4587 39.9627 35.1413 40.176 35.696C40.432 36.208 40.7947 36.592 41.264 36.848C41.7333 37.104 42.2453 37.232 42.8 37.232C44.08 37.232 45.2747 36.8053 46.384 35.952C47.4933 35.0987 48.4533 33.9253 49.264 32.432C50.0747 30.896 50.7147 29.1467 51.184 27.184C51.6533 25.2213 51.888 23.152 51.888 20.976C51.888 17.776 51.2053 15.0453 49.84 12.784C48.4747 10.48 46.4907 8.73067 43.888 7.536C41.328 6.29866 38.2347 5.68 34.608 5.68C30.256 5.68 26.3093 6.29866 22.768 7.536C19.2267 8.73067 16.1973 10.5013 13.68 12.848C11.2053 15.152 9.28533 17.968 7.92 21.296C6.59733 24.624 5.936 28.4 5.936 32.624C5.936 35.568 6.34133 38.192 7.152 40.496C8.00533 42.7573 9.22133 44.6987 10.8 46.32C12.3787 47.9413 14.3413 49.1573 16.688 49.968C19.0347 50.8213 21.7013 51.248 24.688 51.248C26.6933 51.248 28.4213 51.0987 29.872 50.8C31.3227 50.544 32.7093 50.1173 34.032 49.52C35.3547 48.9653 36.8267 48.2613 38.448 47.408L40.816 51.696C38.2987 52.976 36.144 53.936 34.352 54.576C32.56 55.2587 30.896 55.728 29.36 55.984C27.824 56.24 26.2027 56.368 24.496 56.368ZM25.072 37.04C26.5227 37.04 27.9093 36.592 29.232 35.696C30.5973 34.7573 31.7493 33.584 32.688 32.176C33.6693 30.7253 34.2667 29.232 34.48 27.696C34.608 26.928 34.7147 26.2667 34.8 25.712C34.8853 25.1573 34.928 24.624 34.928 24.112C34.928 23.0027 34.7147 22.064 34.288 21.296C33.8613 20.4853 33.2427 19.8667 32.432 19.44C31.664 19.0133 30.7467 18.8 29.68 18.8C28.016 18.8 26.5013 19.4187 25.136 20.656C23.7707 21.8507 22.6827 23.408 21.872 25.328C21.0613 27.2053 20.656 29.1467 20.656 31.152C20.656 32.9867 21.04 34.4373 21.808 35.504C22.6187 36.528 23.7067 37.04 25.072 37.04ZM76.134 46.64C74.6833 46.64 73.2967 46.448 71.974 46.064C70.6513 45.68 69.414 45.1253 68.262 44.4C67.1527 43.6747 66.15 42.8213 65.254 41.84C64.358 40.816 63.59 39.7067 62.95 38.512L67.302 33.968C68.198 35.248 69.0087 36.272 69.734 37.04C70.502 37.808 71.2273 38.4053 71.91 38.832C72.5927 39.2587 73.2753 39.5573 73.958 39.728C74.6407 39.856 75.366 39.92 76.134 39.92C77.67 39.92 79.014 39.5787 80.166 38.896C81.318 38.1707 82.214 37.1893 82.854 35.952C83.494 34.7147 83.814 33.3067 83.814 31.728V7.6H75.622V1.2H97.638V7.6H90.726V32.368C90.726 34.416 90.3633 36.3147 89.638 38.064C88.9553 39.7707 87.9527 41.264 86.63 42.544C85.35 43.824 83.814 44.8267 82.022 45.552C80.2727 46.2773 78.31 46.64 76.134 46.64ZM97.6 46L114.944 1.2H121.984L139.2 46H131.84L121.6 18.992C121.472 18.6933 121.216 17.968 120.832 16.816C120.491 15.664 120.085 14.384 119.616 12.976C119.147 11.568 118.72 10.288 118.336 9.136C117.952 7.94133 117.696 7.17333 117.568 6.832L119.04 6.768C118.784 7.49333 118.464 8.41066 118.08 9.52C117.739 10.6293 117.355 11.8027 116.928 13.04C116.544 14.2773 116.16 15.4507 115.776 16.56C115.392 17.6267 115.072 18.5227 114.816 19.248L104.64 46H97.6ZM105.28 34.864L107.84 28.208H128.192L131.136 34.864H105.28ZM164.587 46.64C161.429 46.64 158.507 46.064 155.819 44.912C153.173 43.76 150.848 42.16 148.843 40.112C146.88 38.0213 145.344 35.5893 144.235 32.816C143.168 30 142.635 26.928 142.635 23.6C142.635 20.272 143.168 17.2213 144.235 14.448C145.344 11.632 146.88 9.2 148.843 7.152C150.848 5.06133 153.173 3.44 155.819 2.288C158.507 1.136 161.429 0.559998 164.587 0.559998C167.744 0.559998 170.645 1.136 173.291 2.288C175.979 3.44 178.304 5.06133 180.267 7.152C182.272 9.24266 183.808 11.696 184.875 14.512C185.984 17.2853 186.539 20.3147 186.539 23.6C186.539 26.8853 185.984 29.936 184.875 32.752C183.808 35.5253 182.272 37.9573 180.267 40.048C178.304 42.1387 175.979 43.76 173.291 44.912C170.645 46.064 167.744 46.64 164.587 46.64ZM164.587 39.92C166.763 39.92 168.747 39.5147 170.539 38.704C172.373 37.8933 173.952 36.7627 175.275 35.312C176.597 33.8187 177.621 32.0907 178.347 30.128C179.115 28.1227 179.499 25.9467 179.499 23.6C179.499 21.2533 179.115 19.0987 178.347 17.136C177.621 15.1307 176.597 13.4027 175.275 11.952C173.952 10.4587 172.373 9.30666 170.539 8.496C168.747 7.68533 166.763 7.28 164.587 7.28C162.411 7.28 160.405 7.68533 158.571 8.496C156.779 9.30666 155.2 10.4373 153.835 11.888C152.512 13.3387 151.488 15.0667 150.763 17.072C150.037 19.0347 149.675 21.2107 149.675 23.6C149.675 25.9467 150.037 28.1227 150.763 30.128C151.488 32.1333 152.512 33.8613 153.835 35.312C155.2 36.7627 156.779 37.8933 158.571 38.704C160.405 39.5147 162.411 39.92 164.587 39.92Z" fill="white"/>
</svg>
